<?xml version="1.0" encoding="utf-8"?>
<!-- Generator: Adobe Illustrator 24.1.1, SVG Export Plug-In . SVG Version: 6.00 Build 0)  -->
<svg version="1.1" id="Livello_1" xmlns="http://www.w3.org/2000/svg" xmlns:xlink="http://www.w3.org/1999/xlink" x="0px" y="0px"
	 viewBox="0 0 2000 2000" style="enable-background:new 0 0 2000 2000;" xml:space="preserve">
<style type="text/css">
	.st0{fill:#14595E;}
	.st1{fill:#FFB753;}
	.st2{fill:#F0F0F0;}
	.st3{fill:#0D0D0D;}
	.st4{fill:#C2C2C2;}
	.st5{fill:#454545;}
	.st6{fill:#545454;}
</style>
<g>
	<g>
		<path class="st1" d="M1675,699.8v450c0,124.3-100.7,225-225,225c-57.5,0-110-21.6-149.7-57c-39.8,35.8-92.5,57.5-150.3,57.5
			c-62.1,0-118.4-25.2-159.1-65.9c-40.7-40.7-65.9-97-65.9-159.1V987.7c18,21.4,44.9,35,75,35c26.1,0,50.7-10.2,69.2-28.7
			c2-2,3.9-4.1,5.7-6.3v162.5c0,41.4,33.6,75,75,75c20.7,0,39.5-8.4,53-22c13.6-13.6,22-32.3,22-53V699.8c0-0.5,0-1,0-1.4
			c1-40.5,34.2-73.1,75-73.1c20.7,0,39.5,8.4,53,22c13.1,13.1,21.4,31.2,21.9,51.1c0,0.5,0,1,0,1.4v450.5
			c0.3,41.2,33.7,74.5,75,74.5c20.7,0,39.5-8.4,53-22c13.6-13.6,22-32.3,22-53v-450c0-41.4,33.6-75,75-75c20.7,0,39.5,8.4,53,22
			C1666.6,660.3,1675,679,1675,699.8z"/>
		<g>
			<path class="st1" d="M1075,849.8v75c0,20.7-8.4,39.5-22,53c-13.6,13.6-32.3,22-53,22c-41.4,0-75-33.6-75-75v-75
				c0-41.4-33.6-75-75-75c-20.7,0-39.5,8.4-53,22c-13.6,13.6-22,32.3-22,53v300c0,124.3-100.7,225-225,225h0
				c-124.3,0-225-100.7-225-225v-450c0-20.7,8.4-39.5,22-53c13.6-13.6,32.3-22,53-22h0c41.1,0,74.5,33.1,75,74v451
				c0,41.4,33.6,75,75,75c20.7,0,39.5-8.4,53-22c13.6-13.6,22-32.3,22-53v-300c0-124.3,100.7-225,225-225c34.9,0,67.9,7.9,97.3,22.1
				c23,11.1,43.9,26,61.8,43.8C1049.8,731.4,1075,787.6,1075,849.8z"/>
		</g>
	</g>
	<path class="st0" d="M904.1,1043c0,6-4.8,10.8-10.8,10.8H850c-17.7,0-33.4-8.5-43.2-21.6c-6.8-9-10.8-20.3-10.8-32.4
		c0-12.2,4-23.4,10.8-32.4c9.9-13.1,25.6-21.6,43.2-21.6h43.2c6,0,10.8,4.8,10.8,10.8v0c0,6-4.8,10.8-10.8,10.8h-42.7
		c-18.3,0-33.3,14.8-33,33.1c0.4,17.6,14.7,31.8,32.4,31.8h43.2C899.2,1032.2,904.1,1037,904.1,1043L904.1,1043z"/>
	<circle class="st0" cx="861.1" cy="999.8" r="11.1"/>
	<path class="st0" d="M1204.1,1043c0,6-4.8,10.8-10.8,10.8H1150c-17.7,0-33.4-8.5-43.2-21.6c-6.8-9-10.8-20.3-10.8-32.4
		c0-12.2,4-23.4,10.8-32.4c9.9-13.1,25.6-21.6,43.2-21.6h43.2c6,0,10.8,4.8,10.8,10.8v0c0,6-4.8,10.8-10.8,10.8h-42.7
		c-18.3,0-33.3,14.8-33,33.1c0.4,17.6,14.7,31.8,32.4,31.8h43.2C1199.2,1032.2,1204.1,1037,1204.1,1043L1204.1,1043z"/>
	<path class="st0" d="M593.2,967.3h-86.5c-6,0-10.8-4.8-10.8-10.8l0,0c0-6,4.8-10.8,10.8-10.8h86.5c6,0,10.8,4.8,10.8,10.8l0,0
		C604,962.5,599.2,967.3,593.2,967.3z"/>
	<path class="st0" d="M539.2,1043v-54c0-6,4.8-10.8,10.8-10.8l0,0c6,0,10.8,4.8,10.8,10.8v54c0,6-4.8,10.8-10.8,10.8l0,0
		C544,1053.8,539.2,1049,539.2,1043z"/>
	<g>
		<path class="st0" d="M1417.6,956.5v86.5c0,6-4.8,10.8-10.8,10.8s-10.8-4.8-10.8-10.8v-86.5c0-6,4.8-10.8,10.8-10.8
			S1417.6,950.5,1417.6,956.5z"/>
	</g>
	<g>
		<path class="st0" d="M1504,956.5v86.5c0,6-4.8,10.8-10.8,10.8h0c-6,0-10.8-4.8-10.8-10.8v-42.7c0-0.2,0-0.4,0-0.5
			c0-0.2,0-0.4,0-0.5v-42.7c0-6,4.8-10.8,10.8-10.8h0C1499.2,945.7,1504,950.5,1504,956.5z"/>
	</g>
	<circle class="st0" cx="1450" cy="999.8" r="11.1"/>
</g>
</svg>
