<?xml version="1.0" encoding="utf-8"?>
<!-- Generator: Adobe Illustrator 24.1.1, SVG Export Plug-In . SVG Version: 6.00 Build 0)  -->
<svg version="1.1" id="Livello_1" xmlns="http://www.w3.org/2000/svg" xmlns:xlink="http://www.w3.org/1999/xlink" x="0px" y="0px"
	 viewBox="0 0 2000 2000" style="enable-background:new 0 0 2000 2000;" xml:space="preserve">
<style type="text/css">
	.st0{fill:#14595E;}
	.st1{fill:#FFB753;}
	.st2{fill:#F0F0F0;}
	.st3{fill:#0D0D0D;}
	.st4{fill:#C2C2C2;}
	.st5{fill:#454545;}
	.st6{fill:#545454;}
</style>
<g>
	<path class="st0" d="M380.9,717.9c0,6.9,2.8,13.1,7.3,17.6s10.7,7.3,17.6,7.3h99.6c41.2,0,74.7,33.4,74.7,74.7
		c0,20.6-8.4,39.3-21.9,52.8c-13.5,13.5-32.2,21.9-52.8,21.9h-98.2c-0.5,0-0.9,0-1.4,0h0c-0.5,0-0.9,0-1.4,0c-6.3,0.3-12,3-16.2,7.3
		c-4.5,4.5-7.3,10.7-7.3,17.6v70.4l0,128.9c0,13.7,11.1,24.9,24.9,24.9c6.9,0,13.1-2.8,17.6-7.3c4.5-4.5,7.3-10.7,7.3-17.6V966.8
		c0-0.2,0-0.3,0-0.5c0.3-13.4,11.3-24.2,24.9-24.2c6.9,0,13.1,2.8,17.6,7.3c0,0,0,0,0,0c4.4,4.4,7.1,10.3,7.3,17c0,0.2,0,0.3,0,0.5
		v149.5c0.1,13.7,11.2,24.7,24.9,24.7c6.9,0,13.1-2.8,17.6-7.3c4.5-4.5,7.3-10.7,7.3-17.6V966.8c0-13.7,11.1-24.9,24.9-24.9
		c6.9,0,13.1,2.8,17.6,7.3c4.5,4.5,7.3,10.7,7.3,17.6v149.3c0,41.2-33.4,74.7-74.7,74.7c-19.1,0-36.5-7.2-49.7-18.9
		c-13.2,11.9-30.7,19.1-49.9,19.1c-20.6,0-39.3-8.4-52.8-21.9c-13.5-13.5-21.9-32.2-21.9-52.8l0-198.3V916
		c0.1-11.2,2.7-21.8,7.3-31.2c3.7-7.7,8.6-14.6,14.6-20.6c6-6,13-10.9,20.7-14.6c9.1-4.3,19.1-6.9,29.8-7.2h101.9
		c13.7,0,24.9-11.1,24.9-24.9c0-6.9-2.8-13.1-7.3-17.6c-4.5-4.5-10.7-7.3-17.6-7.3h-99.6c-41.2,0-74.7-33.4-74.7-74.7v0
		c0-41.2,33.4-74.7,74.7-74.7h149.3c6.9,0,13.1,2.8,17.6,7.3c4.5,4.5,7.3,10.7,7.3,17.6v0c0,13.6-11,24.7-24.6,24.9H405.7
		C392,693.1,380.9,704.2,380.9,717.9z"/>
	<path class="st0" d="M729.3,643.3c-68.7,0-124.4,55.7-124.4,124.4s55.7,124.4,124.4,124.4c68.7,0,124.4-55.7,124.4-124.4
		S798,643.3,729.3,643.3z M729.3,842.4c-41.2,0-74.7-33.4-74.7-74.7c0-41.2,33.4-74.7,74.7-74.7c41.2,0,74.7,33.4,74.7,74.7
		C803.9,809,770.5,842.4,729.3,842.4z"/>
	<path class="st0" d="M1102.6,643.3c13.7,0,24.9,11.1,24.9,24.9v99.6c0,40.7-19.5,76.9-49.8,99.5c-20.8,15.6-46.7,24.9-74.7,24.9
		s-53.9-9.3-74.7-24.9c-30.2-22.7-49.8-58.8-49.8-99.6v-99.6c0-13.7,11.1-24.9,24.9-24.9h0c13.7,0,24.9,11.1,24.9,24.9v98.3
		c0,42,34.2,76.7,76.2,75.9c40.5-0.8,73.1-33.9,73.1-74.7v-99.6C1077.7,654.4,1088.9,643.3,1102.6,643.3L1102.6,643.3z"/>
	<path class="st0" d="M1177.3,892.2c-13.7,0-24.9-11.1-24.9-24.9v-99.6c0-40.7,19.5-76.9,49.8-99.5c20.8-15.6,46.7-24.9,74.7-24.9
		s53.9,9.3,74.7,24.9c30.2,22.7,49.8,58.8,49.8,99.6v99.6c0,13.7-11.1,24.9-24.9,24.9h0c-13.7,0-24.9-11.1-24.9-24.9v-98.3
		c0-42-34.2-76.7-76.2-75.9c-40.5,0.8-73.1,33.9-73.1,74.7v99.6C1202.1,881,1191,892.2,1177.3,892.2L1177.3,892.2z"/>
	<path class="st0" d="M1426.1,668.2c0-13.7,11.1-24.9,24.9-24.9h99.6c40.7,0,76.9,19.5,99.5,49.8c15.6,20.8,24.9,46.7,24.9,74.7
		c0,28-9.3,53.9-24.9,74.7c-22.7,30.2-58.8,49.8-99.6,49.8H1451c-13.7,0-24.9-11.1-24.9-24.9v0c0-13.7,11.1-24.9,24.9-24.9h98.3
		c42,0,76.7-34.2,75.9-76.2c-0.8-40.5-33.9-73.1-74.7-73.1H1451C1437.3,693,1426.1,681.9,1426.1,668.2L1426.1,668.2z"/>
	<g>
		<path class="st0" d="M629.7,1191c-13.7,0-24.9-11.1-24.9-24.9v-99.6c0-40.7,19.5-76.9,49.8-99.5c20.8-15.6,46.7-24.9,74.7-24.9
			s53.9,9.3,74.7,24.9c30.2,22.7,49.8,58.8,49.8,99.6v99.6c0,13.7-11.1,24.9-24.9,24.9h0c-13.7,0-24.9-11.1-24.9-24.9v-98.3
			c0-42-34.2-76.7-76.2-75.9c-40.5,0.8-73.1,33.9-73.1,74.7v99.6C654.6,1179.8,643.5,1191,629.7,1191L629.7,1191z"/>
		<circle class="st0" cx="729.3" cy="1092" r="25.5"/>
	</g>
	<g>
		<path class="st0" d="M1401.3,1166.1c0,13.7-11.1,24.9-24.9,24.9h-99.6c-40.7,0-76.9-19.5-99.5-49.8
			c-15.6-20.8-24.9-46.7-24.9-74.7s9.3-53.9,24.9-74.7c22.7-30.2,58.8-49.8,99.6-49.8h99.6c13.7,0,24.9,11.1,24.9,24.9v0
			c0,13.7-11.1,24.9-24.9,24.9H1278c-42,0-76.7,34.2-75.9,76.2c0.8,40.5,33.9,73.1,74.7,73.1h99.6
			C1390.1,1141.2,1401.3,1152.3,1401.3,1166.1L1401.3,1166.1z"/>
		<circle class="st0" cx="1302.3" cy="1066.5" r="25.5"/>
	</g>
	<path class="st0" d="M1113.7,944.7c-12.3-6.1-27.3-1.2-33.4,11.1l-77.3,154.6l-77.3-154.6c-6.1-12.3-21.1-17.3-33.4-11.1
		c-12.3,6.2-17.3,21.1-11.1,33.4l99.5,199.1c0.9,1.9,2.1,3.5,3.3,5c0,0,0,0,0,0c1.6,1.9,3.5,3.5,5.5,4.8c0,0,0,0,0.1,0
		c0.7,0.4,1.4,0.9,2.2,1.2c0,0,0,0,0,0c0,0,0.1,0,0.1,0c0.8,0.4,1.7,0.8,2.5,1.1c0,0,0.1,0,0.1,0c0.2,0.1,0.4,0.1,0.5,0.2
		c0.3,0.1,0.7,0.2,1,0.3c0.2,0,0.3,0.1,0.5,0.1c0.4,0.1,0.7,0.2,1.1,0.3c0.2,0,0.3,0.1,0.5,0.1c0.4,0.1,0.8,0.1,1.2,0.2
		c0.1,0,0.3,0,0.4,0.1c0.4,0.1,0.8,0.1,1.2,0.1c0.1,0,0.2,0,0.4,0c0.5,0,1.1,0.1,1.6,0.1c0,0,0,0,0,0c0,0,0,0,0,0
		c0.5,0,1.1,0,1.6-0.1c0.1,0,0.2,0,0.4,0c0.4,0,0.8-0.1,1.3-0.1c0.1,0,0.3,0,0.4-0.1c0.4-0.1,0.8-0.1,1.2-0.2c0.1,0,0.3-0.1,0.4-0.1
		c0.4-0.1,0.8-0.2,1.2-0.3c0.1,0,0.3-0.1,0.4-0.1c0.4-0.1,0.8-0.2,1.2-0.4c0.1,0,0.3-0.1,0.4-0.1c0.5-0.2,0.9-0.4,1.4-0.6
		c0.3-0.1,0.6-0.3,1-0.4c0.1-0.1,0.3-0.1,0.4-0.2c0,0,0,0,0,0c0.7-0.4,1.4-0.8,2.1-1.2c0.1,0,0.1-0.1,0.2-0.1
		c0.6-0.4,1.2-0.8,1.8-1.3c0,0,0.1-0.1,0.2-0.1c0.6-0.5,1.2-1,1.8-1.5c0,0,0.1-0.1,0.1-0.1c0.5-0.5,1-1,1.4-1.5
		c0.1-0.1,0.2-0.2,0.2-0.3c1-1.1,1.8-2.4,2.6-3.7c0.1-0.1,0.1-0.2,0.2-0.4c0.2-0.3,0.3-0.6,0.5-0.9l99.5-199.1
		C1131,965.8,1126,950.8,1113.7,944.7z"/>
	<g>
		<g>
			<path class="st1" d="M580.2,1344.6c0,6.7-5.4,12.2-12.2,12.2h-48.6c-19.9,0-37.5-9.5-48.6-24.3c-7.6-10.2-12.2-22.8-12.2-36.5
				s4.5-26.3,12.1-36.5c11.1-14.8,28.7-24.3,48.6-24.3h48.6c6.7,0,12.2,5.4,12.2,12.2v0c0,6.7-5.4,12.2-12.2,12.2h-48
				c-20.5,0-37.5,16.7-37.1,37.2c0.4,19.8,16.6,35.7,36.5,35.7h48.6C574.8,1332.4,580.2,1337.9,580.2,1344.6L580.2,1344.6z"/>
			<circle class="st1" cx="531.9" cy="1295.9" r="12.5"/>
		</g>
		<g>
			<path class="st1" d="M713.9,1344.6c0,6.7-5.4,12.2-12.2,12.2h-48.6c-19.9,0-37.5-9.5-48.6-24.3c-7.6-10.2-12.2-22.8-12.2-36.5
				s4.5-26.3,12.1-36.5c11.1-14.8,28.7-24.3,48.6-24.3h48.6c6.7,0,12.2,5.4,12.2,12.2v0c0,6.7-5.4,12.2-12.2,12.2h-48
				c-20.5,0-37.5,16.7-37.1,37.2c0.4,19.8,16.6,35.7,36.5,35.7h48.6C708.5,1332.4,713.9,1337.9,713.9,1344.6L713.9,1344.6z"/>
		</g>
		<g>
			<path class="st1" d="M434.4,1259.5h-97.2c-6.7,0-12.2-5.4-12.2-12.2l0,0c0-6.7,5.4-12.2,12.2-12.2h97.2c6.7,0,12.2,5.4,12.2,12.2
				l0,0C446.5,1254,441.1,1259.5,434.4,1259.5z"/>
			<path class="st1" d="M373.6,1344.6v-60.8c0-6.7,5.4-12.2,12.2-12.2l0,0c6.7,0,12.2,5.4,12.2,12.2v60.8c0,6.7-5.4,12.2-12.2,12.2
				l0,0C379.1,1356.7,373.6,1351.3,373.6,1344.6z"/>
		</g>
		<g>
			<g>
				<path class="st1" d="M750.4,1247.3v97.2c0,6.7-5.4,12.1-12.2,12.1c-6.7,0-12.1-5.4-12.1-12.1v-97.2c0-6.7,5.4-12.1,12.1-12.1
					C745,1235.2,750.4,1240.6,750.4,1247.3z"/>
			</g>
			<g>
				<path class="st1" d="M847.6,1247.3v97.2c0,6.7-5.4,12.1-12.2,12.1h0c-6.7,0-12.1-5.4-12.1-12.1v-48c0-0.2,0-0.4,0-0.6
					c0-0.2,0-0.4,0-0.6v-48c0-6.7,5.4-12.1,12.1-12.1h0C842.2,1235.2,847.6,1240.6,847.6,1247.3z"/>
			</g>
			<circle class="st1" cx="786.9" cy="1295.9" r="12.5"/>
		</g>
	</g>
</g>
</svg>
